<svg xmlns="http://www.w3.org/2000/svg" width="1200" height="630" viewBox="0 0 1200 630" role="img" aria-labelledby="title desc">
  <title id="title">Turtleand Decentralized Systems Lab</title>
  <desc id="desc">A dark blue social card with a geometric network and the Decentralized Systems Lab title.</desc>
  <defs>
    <linearGradient id="background" x1="0" y1="0" x2="1" y2="1">
      <stop offset="0" stop-color="#07131f" />
      <stop offset="1" stop-color="#102f3b" />
    </linearGradient>
    <radialGradient id="glow" cx="50%" cy="50%" r="50%">
      <stop offset="0" stop-color="#63e6be" stop-opacity="0.42" />
      <stop offset="1" stop-color="#63e6be" stop-opacity="0" />
    </radialGradient>
  </defs>
  <rect width="1200" height="630" fill="url(#background)" />
  <circle cx="930" cy="315" r="280" fill="url(#glow)" />
  <g fill="none" stroke="#63e6be" stroke-width="3" opacity="0.62">
    <path d="M790 194 930 112 1070 194 1070 356 930 438 790 356Z" />
    <path d="M790 194 930 276 1070 194M930 276V438M790 356 930 276 1070 356" />
  </g>
  <g fill="#a7f3d0">
    <circle cx="790" cy="194" r="9" />
    <circle cx="930" cy="112" r="9" />
    <circle cx="1070" cy="194" r="9" />
    <circle cx="1070" cy="356" r="9" />
    <circle cx="930" cy="438" r="9" />
    <circle cx="790" cy="356" r="9" />
    <circle cx="930" cy="276" r="13" />
  </g>
  <text x="88" y="134" fill="#63e6be" font-family="Arial, Helvetica, sans-serif" font-size="28" font-weight="700" letter-spacing="5">TURTLEAND</text>
  <text x="88" y="266" fill="#f3f7f5" font-family="Arial, Helvetica, sans-serif" font-size="64" font-weight="700">Decentralized</text>
  <text x="88" y="342" fill="#f3f7f5" font-family="Arial, Helvetica, sans-serif" font-size="64" font-weight="700">Systems Lab</text>
  <text x="92" y="415" fill="#b8ccc6" font-family="Arial, Helvetica, sans-serif" font-size="27">Protocols, custody, security, governance, and trade-offs.</text>
  <rect x="88" y="486" width="440" height="3" fill="#63e6be" opacity="0.75" />
</svg>
